<svg xmlns="http://www.w3.org/2000/svg" viewBox="0 0 128 128"><defs><radialGradient id="wash"><stop stop-color="#ce8e9c" stop-opacity=".2"/><stop offset="1" stop-color="#ce8e9c" stop-opacity="0"/></radialGradient></defs><ellipse cx="64" cy="69" rx="61" ry="54" fill="url(#wash)"/><g fill="#ce8e9c" stroke="#716653" stroke-opacity=".55" stroke-width="1.5" stroke-linejoin="round" stroke-linecap="round"><path d="M62 111V75" fill="none" stroke="#7a956a"/><path d="M61 96q-20-26-33-12 10 19 33 12Z" fill="#94a783"/><ellipse cx="60" cy="48" rx="18" ry="24" transform="rotate(0 60 60)" opacity=".85"/><ellipse cx="60" cy="48" rx="18" ry="24" transform="rotate(72 60 60)" opacity=".85"/><ellipse cx="60" cy="48" rx="18" ry="24" transform="rotate(144 60 60)" opacity=".85"/><ellipse cx="60" cy="48" rx="18" ry="24" transform="rotate(216 60 60)" opacity=".85"/><ellipse cx="60" cy="48" rx="18" ry="24" transform="rotate(288 60 60)" opacity=".85"/><path d="M40 60q-6-23 16-21 22-12 26 14 8 24-18 26-23 3-24-19Z"/><path d="M47 63q-9-15 9-17 17-7 19 11 0 16-17 15-13-2-11-9Zm9-13q17 1 9 13-12 8-13-3 0-9 8-4" fill="none"/></g></svg>