<svg xmlns="http://www.w3.org/2000/svg" viewBox="0 0 128 128"><defs><radialGradient id="wash"><stop stop-color="#cb737c" stop-opacity=".2"/><stop offset="1" stop-color="#cb737c" stop-opacity="0"/></radialGradient></defs><ellipse cx="64" cy="69" rx="61" ry="54" fill="url(#wash)"/><g fill="#cb737c" stroke="#716653" stroke-opacity=".55" stroke-width="1.5" stroke-linejoin="round" stroke-linecap="round"><path d="M28 46q33-21 63 0 5 27-31 58-33-32-32-58Z"/><path d="m33 42 19-3 8-14 6 15 20 2-16 12-11-8-15 9Z" fill="#899d73"/><ellipse cx="41" cy="58" rx="1.5" ry="2.5" fill="#f2d49b" stroke="none"/><ellipse cx="53" cy="58" rx="1.5" ry="2.5" fill="#f2d49b" stroke="none"/><ellipse cx="65" cy="58" rx="1.5" ry="2.5" fill="#f2d49b" stroke="none"/><ellipse cx="77" cy="58" rx="1.5" ry="2.5" fill="#f2d49b" stroke="none"/><ellipse cx="41" cy="68" rx="1.5" ry="2.5" fill="#f2d49b" stroke="none"/><ellipse cx="53" cy="68" rx="1.5" ry="2.5" fill="#f2d49b" stroke="none"/><ellipse cx="65" cy="68" rx="1.5" ry="2.5" fill="#f2d49b" stroke="none"/><ellipse cx="77" cy="68" rx="1.5" ry="2.5" fill="#f2d49b" stroke="none"/><ellipse cx="41" cy="78" rx="1.5" ry="2.5" fill="#f2d49b" stroke="none"/><ellipse cx="53" cy="78" rx="1.5" ry="2.5" fill="#f2d49b" stroke="none"/><ellipse cx="65" cy="78" rx="1.5" ry="2.5" fill="#f2d49b" stroke="none"/><ellipse cx="77" cy="78" rx="1.5" ry="2.5" fill="#f2d49b" stroke="none"/><ellipse cx="41" cy="88" rx="1.5" ry="2.5" fill="#f2d49b" stroke="none"/><ellipse cx="53" cy="88" rx="1.5" ry="2.5" fill="#f2d49b" stroke="none"/><ellipse cx="65" cy="88" rx="1.5" ry="2.5" fill="#f2d49b" stroke="none"/></g></svg>