<svg xmlns="http://www.w3.org/2000/svg" viewBox="0 0 128 128"><defs><radialGradient id="wash"><stop stop-color="#ab7852" stop-opacity=".2"/><stop offset="1" stop-color="#ab7852" stop-opacity="0"/></radialGradient></defs><ellipse cx="64" cy="69" rx="61" ry="54" fill="url(#wash)"/><g fill="#ab7852" stroke="#716653" stroke-opacity=".55" stroke-width="1.5" stroke-linejoin="round" stroke-linecap="round"><path d="m27 49 24-8 15 12v24l-23 8-16-13Z"/><path d="m27 49 16 12 23-9m-23 9v24" fill="none" opacity=".6"/><path d="m63 63 24-8 15 12v24l-23 8-16-13Z"/><path d="m63 63 16 12 23-9m-23 9v24" fill="none" opacity=".6"/><path d="m51 33 24-8 15 12v24l-23 8-16-13Z"/><path d="m51 33 16 12 23-9m-23 9v24" fill="none" opacity=".6"/></g></svg>